# AST/ASF file generated using VICON BodyLanguage
# -----------------------------------------------
:version 1.10
:name VICON
:units
  mass 1.0
  length 0.45
  angle deg
:documentation
   .ast/.asf automatically generated from VICON data using
   VICON BodyBuilder and BodyLanguage model FoxedUp or BRILLIANT.MOD
:root
   order TX TY TZ RX RY RZ
   axis XYZ
   position 0 0 0  
   orientation 0 0 0 
:bonedata
  begin
     id 1 
     name lhipjoint
     direction 0.547975 -0.797114 0.253638 
     length 2.36201 
     axis 0 0 0  XYZ
  end
  begin
     id 2 
     name lfemur
     direction 0.34202 -0.939693 0  
     length 7.69075  
     axis 0 0 20  XYZ
    dof rx ry rz
    limits (-160.0 20.0)
           (-70.0 70.0)
           (-60.0 70.0)
  end
  begin
     id 3 
     name ltibia
     direction 0.34202 -0.939693 0   
     length 7.91399   
     axis 0 0 20   XYZ
    dof rx
    limits (-10.0 170.0)
  end
  begin
     id 4 
     name lfoot
     direction 0.0705293 -0.193778 0.978507   
     length 2.13618   
     axis -90 7.62852e-016 20   XYZ
    dof rx rz
    limits (-45.0 90.0)
           (-70.0 20.0)
  end
  begin
     id 5 
     name ltoes
     direction 1.53592e-011 -4.21925e-011 1   
     length 1.07518   
     axis -90 7.62852e-016 20   XYZ
    dof rx
    limits (-90.0 20.0)
  end
  begin
     id 6 
     name rhipjoint
     direction -0.57 -0.782963 0.249136   
     length 2.4047  
     axis 0 0 0  XYZ 
  end
  begin
     id 7 
     name rfemur
     direction -0.34202 -0.939693 0   
     length 7.51486   
     axis 0 0 -20   XYZ
    dof rx ry rz
    limits (-160.0 20.0)
           (-70.0 70.0)
           (-70.0 60.0)
  end
  begin
     id 8 
     name rtibia
     direction -0.34202 -0.939693 0   
     length 8.08317   
     axis 0 0 -20   XYZ
    dof rx
    limits (-10.0 170.0)
 end
 begin
     id 9 
     name rfoot
     direction -0.104954 -0.281256 0.953876   
     length 2.30343  
     axis -90 -7.62852e-016 -20   XYZ
    dof rx rz
    limits (-45.0 90.0)
           (-20.0 70.0)
  end
  begin
     id 10 
     name rtoes
     direction -1.53556e-011 -4.21922e-011 1   
     length 1.14803   
     axis -90 -7.62852e-016 -20   XYZ
    dof rx
    limits (-90.0 20.0)
  end
  begin
     id 11 
     name lowerback
     direction -0.0152855 0.99353 -0.11254   
     length 2.05311   
     axis 0 0 0   XYZ
    dof rx ry rz
    limits (-20.0 45.0)
           (-30.0 30.0)
           (-30.0 30.0)
  end
  begin
     id 12 
     name upperback
     direction -0.00157509 0.999443 -0.033332   
     length 2.06353   
     axis 0 0 0   XYZ
    dof rx ry rz
    limits (-20.0 45.0)
           (-30.0 30.0)
           (-30.0 30.0)
  end
  begin
     id 13 
     name thorax
     direction 0.00577788 0.999804 0.0189484   
     length 2.08472   
     axis 0 0 0   XYZ
    dof rx ry rz
    limits (-20.0 45.0)
           (-30.0 30.0)
           (-30.0 30.0)
  end
  begin
     id 14 
     name lowerneck
     direction -1.09301e-005 0.994719 0.10264   
     length 1.76249   
     axis 0 0 0   XYZ
    dof rx ry rz
    limits (-20.0 45.0)
           (-30.0 30.0)
           (-30.0 30.0)
  end
  begin
     id 15 
     name upperneck
     direction 0.0495018 0.988526 -0.142706   
     length 1.77897   
     axis 0 0 0   XYZ
    dof rx ry rz
    limits (-20.0 45.0)
           (-30.0 30.0)
           (-30.0 30.0)
  end
  begin
     id 16
     name head
     direction 0.0142736 0.998114 -0.0597101  
     length 1.78934  
     axis 0 0 0   XYZ
    dof rx ry rz
    limits (-20.0 45.0)
           (-30.0 30.0)
           (-30.0 30.0)
  end
  begin
     id 17 
     name lclavicle
     direction 0.918111 0.396107 -0.0130883  
     length 3.37276  
     axis 0 0 0   XYZ
    dof ry rz
    limits (-20.0 10.0)
           (0.0 20.0)
  end
  begin
     id 18 
     name lhumerus
     direction 1 -4.48975e-011 -3.26108e-027   
     length 5.34298   
     axis 180 -30 -90   XYZ
    dof rx ry rz
    limits (-60.0 90.0)
           (-90.0 90.0)
           (-90.0 90.0)
  end
  begin
     id 19
     name lradius
     direction 1 -4.48964e-011 -8.84413e-028   
     length 3.67262   
     axis 180 -30 -90   XYZ
    dof rx
    limits (-10.0 170.0)
  end
  begin
     id 20
     name lwrist
     direction 1 -4.48991e-011 -1.24264e-027   
     length 1.83631   
     axis -2.17013e-015 90 90   XYZ
    dof ry
    limits (-180.0 0.0)
 end
  begin
     id 21 
     name lhand
     direction 1 -4.48855e-011 -2.48528e-027   
     length 0.599298   
     axis 1.58582e-015 90 90   XYZ
    dof rx rz
    limits (-90.0 90.0)
           (-45.0 45.0)
  end
  begin
     id 22 
     name lfingers
     direction 1 -4.48811e-011 -4.97056e-027   
     length 0.48317   
     axis 3.17164e-015 90 90   XYZ
    dof rx
    limits (0.0 90.0)
  end
  begin
     id 23
     name lthumb
     direction 0.707107 -6.34882e-011 0.707107   
     length 0.693738   
     axis -90 45 2.85299e-015   XYZ
    dof rx rz
    limits (-45.0 45.0)
           (-45.0 45.0)
  end
  begin
     id 24 
     name rclavicle
     direction -0.920511 0.384752 -0.0680135   
     length 3.43787  
     axis 0 0 0   XYZ 
    dof ry rz
    limits (-10.0 20.0)
           (-20.0 0.0)
  end
  begin
     id 25 
     name rhumerus
     direction -0.999976 -0.00330524 0.00603274  
     length 5.5498   
     axis 180 30 90   XYZ
    dof rx ry rz
    limits (-90.0 60.0)
           (-90.0 90.0)
           (-90.0 90.0)
  end
  begin
     id 26 
     name rradius
     direction -1 -4.48967e-011 8.62438e-027   
     length 3.69401   
     axis 180 30 90   XYZ
    dof rx
    limits (-10.0 170.0)
  end
  begin
     id 27 
     name rwrist
     direction -1 -4.4897e-011 9.54866e-027   
     length 1.84701   
     axis -7.69462e-015 -90 -90   XYZ
    dof ry
    limits (-180.0 0.0)
  end
  begin
     id 28
     name rhand
     direction -1 -4.48982e-011 1.90973e-026   
     length 0.638113   
     axis -1.21857e-014 -90 -90   XYZ
    dof rx rz
    limits (-90.0 90.0)
           (-45.0 45.0)
  end
  begin
     id 29
     name rfingers
     direction -1 -4.48936e-011 3.81946e-026   
     length 0.514463   
     axis -2.43714e-014 -90 -90   XYZ
    dof rx
    limits (0.0 90.0)
  end
  begin
     id 30
     name rthumb
     direction -0.707107 -6.34942e-011 0.707107   
     length 0.738669   
     axis -90 -45 -2.85299e-015   XYZ
    dof rx rz
    limits (-45.0 45.0)
           (-45.0 45.0)
  end
:hierarchy
  begin
    root lhipjoint rhipjoint lowerback
    lhipjoint lfemur
    lfemur ltibia
    ltibia lfoot
    lfoot ltoes
    rhipjoint rfemur
    rfemur rtibia
    rtibia rfoot
    rfoot rtoes
    lowerback upperback
    upperback thorax
    thorax lowerneck lclavicle rclavicle
    lowerneck upperneck
    upperneck head
    lclavicle lhumerus
    lhumerus lradius
    lradius lwrist
    lwrist lhand lthumb
    lhand lfingers
    rclavicle rhumerus
    rhumerus rradius
    rradius rwrist
    rwrist rhand rthumb
    rhand rfingers
  end

#!OML:ASF F:\twosubjects\two\Thursday\Session 1\Rory.ASF
:FULLY-SPECIFIED
:DEGREES
65
root 18.8161 18.4815 2.26233 7.33109 -46.1648 2.82683
lowerback 11.2516 0.462018 -7.67114
upperback 4.78226 -0.376435 -3.19678
thorax -1.26633 -0.298622 1.02634
lowerneck -8.31794 -0.384318 -4.69489
upperneck 9.79451 -0.854364 8.13137
head 4.3406 -0.145666 3.22489
rclavicle 1.82882e-014 -1.74931e-014
rhumerus -47.4271 -14.1106 -67.8274
rradius 82.0752
rwrist 2.63459
rhand -21.5869 27.4358
rfingers 7.12502
rthumb 4.80769 -2.48962
lclavicle 1.82882e-014 -1.74931e-014
lhumerus -39.7814 2.35218 80.6617
lradius 108.954
lwrist -28.3654
lhand -38.6868 46.5667
lfingers 7.12502
lthumb -11.7016 76.2199
rfemur -24.2312 12.779 0.13878
rtibia 17.4417
rfoot -4.71151 -26.7064
rtoes 7.78178
lfemur -19.4038 10.5626 -14.0678
ltibia 27.6711
lfoot -12.3039 4.0586
ltoes -8.85198
66
root 18.9137 18.5052 2.29107 7.73763 -46.5055 1.9647
lowerback 11.6449 0.395151 -7.33547
upperback 4.88701 -0.463216 -3.08678
thorax -1.36879 -0.339149 0.965982
lowerneck -8.00698 -0.405455 -4.53545
upperneck 9.36921 -0.896466 8.20991
head 4.16197 -0.168087 3.21506
rclavicle -5.12864e-014 5.24792e-014
rhumerus -47.8036 -14.0727 -67.6609
rradius 83.3019
rwrist 2.02809
rhand -21.802 27.5554
rfingers 7.12502
rthumb 4.59998 -2.37466
lclavicle -5.12864e-014 5.24792e-014
lhumerus -39.0034 1.19032 80.7494
lradius 110.557
lwrist -29.7446
lhand -38.6383 46.0656
lfingers 7.12502
lthumb -11.6549 75.7214
rfemur -23.7755 12.618 1.00505
rtibia 16.8536
rfoot -5.05837 -26.2876
rtoes 6.37768
lfemur -19.4281 11.1655 -13.7697
ltibia 27.9622
lfoot -11.9347 3.90034
ltoes -8.73648
67
root 19.0172 18.5271 2.32077 8.07612 -46.809 1.18678
lowerback 11.9892 0.236687 -6.66878
upperback 5.07211 -0.633551 -3.26678
thorax -1.36459 -0.420953 0.429636
lowerneck -7.82238 -0.378551 -4.43346
upperneck 8.98145 -0.924555 8.84063
head 4.01795 -0.156355 3.38819
rclavicle 7.63333e-014 2.22639e-014
rhumerus -48.0217 -14.3051 -67.9111
rradius 84.4065
rwrist 1.60361
rhand -22.1819 27.6889
rfingers 7.12502
rthumb 4.23314 -2.24882
lclavicle 7.63333e-014 2.22639e-014
lhumerus -37.8547 -0.123232 80.3178
lradius 111.871
lwrist -31.0749
lhand -38.4427 45.4441
lfingers 7.12502
lthumb -11.4662 75.1105
rfemur -23.2863 12.6827 1.67873
rtibia 16.3567
rfoot -4.64961 -25.0056
rtoes 3.15676
lfemur -19.4084 11.396 -13.512
ltibia 28.1909
lfoot -12.0783 4.09325
ltoes -8.55862
68
root 19.1057 18.5419 2.34118 8.47145 -47.0124 0.660774
lowerback 12.0324 0.432307 -6.08591
upperback 5.13614 -0.314606 -3.29411
thorax -1.34583 -0.257518 0.0353782
lowerneck -7.27002 -0.750674 -4.8712
upperneck 8.38174 -1.41525 9.46991
head 3.78513 -0.403841 3.62239
rclavicle -2.3059e-014 1.27222e-014
rhumerus -48.9395 -15.2951 -67.1979
rradius 85.669
rwrist 0.905678
rhand -22.5357 27.4961
rfingers 7.12502
rthumb 3.89144 -2.44812
lclavicle -2.3059e-014 1.27222e-014
lhumerus -36.632 -2.49434 80.7318
lradius 112.877
lwrist -32.0771
lhand -38.4161 45.3499
lfingers 7.12502
lthumb -11.4406 75.0178
rfemur -23.1347 13.0693 2.04761
rtibia 16.0447
rfoot -6.7022 -24.1981
rtoes 7.98625
lfemur -19.5992 11.2602 -13.4163
ltibia 28.2574
lfoot -12.1348 4.61446
ltoes -8.9254
69
root 19.1853 18.5596 2.36526 8.6332 -47.2105 0.180792
lowerback 12.0863 0.832998 -5.33873
upperback 5.19409 0.295558 -3.21346
thorax -1.34222 0.0531233 -0.377138
lowerneck -6.43743 -1.29977 -5.54535
upperneck 7.85095 -2.10346 9.79895
head 3.54692 -0.777142 3.79662
rclavicle 6.16232e-014 3.49861e-014
rhumerus -50.4059 -16.5599 -65.9085
rradius 87.1128
rwrist -0.0799279
rhand -22.9226 27.3356
rfingers 7.12502
rthumb 3.51786 -2.61512
lclavicle 6.16232e-014 3.49861e-014
lhumerus -35.5493 -5.30723 81.6574
lradius 113.715
lwrist -32.7939
lhand -38.4708 44.6525
lfingers 7.12502
lthumb -11.4934 74.3174
rfemur -22.8374 13.0772 2.64348
rtibia 16.0386
rfoot -6.57224 -23.18
rtoes 4.37846
lfemur -19.4594 11.0629 -13.2868
ltibia 28.2044
lfoot -12.1029 5.16728
ltoes -9.65165
70
root 19.2742 18.5858 2.38848 8.4968 -47.628 -0.0606416
lowerback 12.4462 1.05849 -5.00354
upperback 5.26428 0.599524 -3.23532
thorax -1.47124 0.207775 -0.631721
lowerneck -5.86594 -1.57406 -5.61504
upperneck 7.32136 -2.45463 9.86703
head 3.32252 -0.972413 3.81014
rclavicle -7.39479e-014 2.22639e-014
rhumerus -51.3381 -17.2559 -65.2074
rradius 88.4025
rwrist -0.880067
rhand -22.4986 27.9348
rfingers 7.12502
rthumb 3.92725 -2.00878
lclavicle -7.39479e-014 2.22639e-014
lhumerus -34.3445 -7.08504 81.9055
lradius 114.491
lwrist -33.798
lhand -37.4767 43.249
lfingers 7.12502
lthumb -10.5345 72.965
rfemur -22.494 12.8386 3.198
rtibia 16.2318
rfoot -2.60219 -21.2961
rtoes -12.9876
lfemur -19.0548 10.7707 -13.3073
ltibia 28.0532
lfoot -12.1685 5.849
ltoes -8.46092
71
root 19.359 18.6022 2.39816 8.50094 -47.878 -0.273671
lowerback 13.0316 -0.107527 -6.92891
upperback 5.36316 -1.21975 -3.39906
thorax -1.58638 -0.720378 0.521107
lowerneck -7.2139 -0.0896821 -1.83091
upperneck 7.89488 -0.699718 8.04998
head 3.56738 -0.0382181 2.71387
rclavicle 6.91771e-014 4.77083e-015
rhumerus -49.4094 -14.6113 -68.1569
rradius 88.9946
rwrist -1.09535
rhand -22.1995 28.5223
rfingers 7.12502
rthumb 4.21613 -1.41572
lclavicle 6.91771e-014 4.77083e-015
lhumerus -33.7019 -5.07047 79.4042
lradius 115.377
lwrist -34.1703
lhand -37.1215 42.8564
lfingers 7.12502
lthumb -10.1918 72.5896
rfemur -22.3182 12.8095 3.66468
rtibia 16.6069
rfoot -6.23909 -21.1228
rtoes -2.89257
lfemur -18.8767 10.3513 -13.328
ltibia 27.8488
lfoot -12.0662 6.35933
ltoes -5.64569
72
root 19.4296 18.6181 2.40676 8.51766 -47.937 -0.376366
lowerback 12.9681 0.439619 -6.2771
upperback 5.47104 -0.406995 -3.26139
thorax -1.49355 -0.31516 0.187932
lowerneck -6.77282 -0.903476 -3.77818
upperneck 7.46707 -1.68151 9.38615
head 3.43987 -0.537333 3.39324
rclavicle -3.65764e-014 -2.8625e-014
rhumerus -50.5962 -16.2642 -66.3524
rradius 90.0867
rwrist -1.69937
rhand -22.5928 28.3131
rfingers 7.12502
rthumb 3.83638 -1.63215
lclavicle -3.65764e-014 -2.8625e-014
lhumerus -32.0367 -8.32161 80.5714
lradius 115.54
lwrist -34.9058
lhand -36.6141 42.3792
lfingers 7.12502
lthumb -9.70235 72.1358
rfemur -22.1345 12.7787 4.05029
rtibia 17.1036
rfoot -8.20745 -20.7155
rtoes 1.12243
lfemur -18.8294 9.97946 -13.435
ltibia 27.6132
lfoot -11.9519 6.69536
ltoes -4.20987
73
root 19.4906 18.6344 2.4182 8.54277 -48.2368 -0.263351
lowerback 12.7332 0.78271 -6.60639
upperback 5.45814 0.028435 -3.17875
thorax -1.3986 -0.1064 0.397932
lowerneck -6.39496 -1.24721 -4.17882
upperneck 7.25565 -2.13424 9.81208
head 3.35266 -0.76818 3.5676
rclavicle -3.4191e-014 1.27222e-014
rhumerus -51.323 -17.0325 -65.4889
rradius 91.2772
rwrist -2.49165
rhand -22.2198 27.6372
rfingers 7.12502
rthumb 4.19654 -2.30121
lclavicle -3.4191e-014 1.27222e-014
lhumerus -30.6667 -10.6519 80.8906
lradius 115.723
lwrist -35.1789
lhand -36.3565 42.2391
lfingers 7.12502
lthumb -9.45378 72.0071
rfemur -22.1846 12.4843 4.31468
rtibia 17.6725
rfoot -10.5417 -20.1495
rtoes 6.58635
lfemur -18.9074 9.81668 -13.7153
ltibia 27.392
lfoot -11.7849 7.05466
ltoes -7.51764
74
root 19.5549 18.6503 2.42558 8.67059 -48.669 -0.454247
lowerback 12.7008 1.19983 -6.6622
upperback 5.40775 0.554788 -3.4987
thorax -1.45942 0.156914 0.02194
lowerneck -6.34985 -1.52726 -2.53444
upperneck 7.45376 -2.6601 9.40634
head 3.41926 -0.999374 3.14402
rclavicle -3.4191e-014 1.43125e-014
rhumerus -52.4616 -18.4643 -65.3362
rradius 92.5144
rwrist -2.74482
rhand -21.9364 27.0297
rfingers 7.12502
rthumb 4.47022 -2.90316
lclavicle -3.4191e-014 1.43125e-014
lhumerus -29.3645 -13.4884 80.4342
lradius 115.801
lwrist -35.3693
lhand -36.1551 42.8379
lfingers 7.12502
lthumb -9.25951 72.6145
rfemur -22.1204 12.0072 4.93728
rtibia 18.1937
rfoot -11.9527 -19.5188
rtoes 10.0885
lfemur -18.8205 9.98408 -13.7398
ltibia 27.1838
lfoot -11.5851 6.97496
ltoes -8.95177
75
root 19.6261 18.6658 2.43467 8.79638 -49.049 -0.71904
lowerback 12.7248 1.74957 -6.34929
upperback 5.3238 1.28035 -4.06497
thorax -1.57737 0.52633 -0.848125
lowerneck -6.23198 -1.85164 0.00857426
upperneck 7.42821 -3.28336 8.56684
head 3.72969 -1.2959 2.70392
rclavicle 1.05753e-013 -1.74931e-014
rhumerus -54.0453 -20.5758 -65.1866
rradius 93.4249
rwrist -2.77612
rhand -22.4512 27.182
rfingers 7.12502
rthumb 3.97304 -2.76071
lclavicle 1.05753e-013 -1.74931e-014
lhumerus -28.03 -16.8919 79.6755
lradius 115.699
lwrist -35.3799
lhand -35.7418 43.6631
lfingers 7.12502
lthumb -8.86065 73.457
rfemur -21.9696 11.2227 5.70525
rtibia 18.791
rfoot -11.6901 -18.8015
rtoes 8.60506
lfemur -18.6195 9.69304 -13.6712
ltibia 27.0132
lfoot -11.9133 7.16205
ltoes -5.39429
76
root 19.7006 18.6848 2.45382 9.59713 -49.4996 -1.76876
lowerback 12.5654 1.58754 -5.96704
upperback 5.41576 1.13757 -3.93009
thorax -1.38821 0.454454 -0.894614
lowerneck -6.77675 -1.55215 0.544205
upperneck 7.72563 -2.94901 8.27306
head 3.90391 -1.10613 2.52599
rclavicle -4.6118e-014 -5.725e-014
rhumerus -53.525 -20.3759 -65.5166
rradius 94.0749
rwrist -3.31769
rhand -22.4931 27.3978
rfingers 7.12502
rthumb 3.93259 -2.54565
lclavicle -4.6118e-014 -5.725e-014
lhumerus -26.6088 -16.8083 78.859
lradius 115.498
lwrist -34.317
lhand -37.0683 42.604
lfingers 7.12502
lthumb -10.1405 72.3396
rfemur -21.9263 10.2516 7.03863
rtibia 19.5551
rfoot -10.467 -17.9854
rtoes 2.37481
lfemur -18.2481 8.86953 -13.0353
ltibia 26.7934
lfoot -12.9099 8.35705
ltoes -3.42387
77
root 19.77 18.6967 2.46437 10.3501 -49.9309 -2.90333
lowerback 12.6852 1.24284 -5.87318
upperback 5.39532 0.711634 -3.25261
thorax -1.47113 0.243286 -0.182151
lowerneck -7.16253 -1.20611 -0.994473
upperneck 8.41048 -2.42029 8.81207
head 3.80682 -0.819527 2.72026
rclavicle 4.05521e-014 7.95139e-015
rhumerus -52.5809 -18.8011 -65.3816
rradius 94.7692
rwrist -3.80097
rhand -22.5068 27.3967
rfingers 7.12502
rthumb 3.91939 -2.54696
lclavicle 4.05521e-014 7.95139e-015
lhumerus -25.8813 -15.8379 79.093
lradius 115.806
lwrist -32.27
lhand -36.4188 39.6054
lfingers 7.12502
lthumb -9.51391 69.3706
rfemur -21.8105 9.5742 8.38258
rtibia 20.5231
rfoot -10.0097 -17.5478
rtoes -2.06341
lfemur -17.6467 8.26463 -12.3214
ltibia 26.4828
lfoot -13.8772 9.42365
ltoes -4.04021
78
root 19.8299 18.6957 2.46227 9.64645 -50.2665 -2.14493
lowerback 12.9208 0.762 -7.39181
upperback 5.20439 -0.0965345 -2.4118
thorax -1.75012 -0.167913 1.65439
lowerneck -7.30916 -0.689336 -4.01854
upperneck 8.94606 -1.48241 9.49075
head 3.96245 -0.402279 3.48762
rclavicle -4.6118e-014 4.77083e-015
rhumerus -51.468 -16.1218 -64.7796
rradius 95.2505
rwrist -4.0056
rhand -22.6605 27.5808
rfingers 7.12502
rthumb 3.771 -2.36555
lclavicle -4.6118e-014 4.77083e-015
lhumerus -25.9327 -14.2364 80.2012
lradius 115.774
lwrist -31.9517
lhand -35.7899 37.6712
lfingers 7.12502
lthumb -8.90707 67.4632
rfemur -21.7662 9.17027 8.30319
rtibia 21.735
rfoot -10.7724 -17.7366
rtoes -0.669695
lfemur -17.2121 7.78406 -12.8911
ltibia 26.0564
lfoot -14.305 9.5637
ltoes -2.19898
